<svg height="512pt" viewBox="-14 0 512 512.001" width="512pt" xmlns="http://www.w3.org/2000/svg"><path d="m449.210938 272.898438c-4.4375-5.636719-9.226563-11.273438-14.328126-16.898438 5.101563-5.625 9.894532-11.265625 14.328126-16.898438 34.363281-43.675781 44.394531-83.132812 28.25-111.101562-9.882813-17.113281-33.578126-36.769531-90.285157-33.191406-37.828125 2.386718-84.265625 15.21875-131.40625 36.242187-20.527343-9.171875-40.855469-16.785156-60.492187-22.65625 1.953125-5.964843 4.035156-11.71875 6.242187-17.234375 15.316407-38.296875 35.589844-61.160156 54.238281-61.160156 5.976563 0 12.125 2.28125 18.277344 6.785156 6.683594 4.890625 16.066406 3.4375 20.960938-3.246094 4.894531-6.683593 3.441406-16.066406-3.242188-20.960937-11.402344-8.347656-23.511718-12.578125-35.996094-12.578125-32.300781 0-61.453124 28.417969-82.09375 80.015625-2.664062 6.660156-5.148437 13.628906-7.472656 20.855469-7.421875-1.605469-14.699218-2.933594-21.796875-3.957032-55.003906-7.921874-94.191406 3.117188-110.339843 31.085938-9.882813 17.113281-15.058594 47.449219 16.398437 94.785156 20.976563 31.5625 55.308594 65.363282 97.085937 95.679688 2.324219 22.363281 5.894532 43.773437 10.625 63.714844-6.140624 1.292968-12.164062 2.367187-18.046874 3.214843-40.824219 5.882813-70.761719-.25-80.082032-16.394531-2.988281-5.175781-4.085937-11.644531-3.265625-19.21875.898438-8.234375-5.054687-15.640625-13.289062-16.535156-8.234375-.890625-15.640625 5.058594-16.535157 13.292968-1.523437 14.046876.867188 26.648438 7.105469 37.460938 12.738281 22.058594 39.800781 33.589844 77.65625 33.589844 10.144531 0 21.066407-.828125 32.6875-2.503906 7.097657-1.023438 14.375-2.351563 21.796875-3.957032 2.320313 7.226563 4.808594 14.199219 7.472656 20.855469 20.640626 51.597656 49.792969 80.015625 82.09375 80.015625 19.761719 0 48.621094-10.683594 73.886719-61.59375 16.847657-33.949219 28.953125-80.582031 34.316407-131.921875 18.207031-13.191406 34.964843-26.992187 49.867187-41.058594 4.1875 4.675781 8.128906 9.351563 11.804687 14.023438 25.503907 32.414062 35.167969 61.402343 25.847657 77.546875-2.992188 5.179687-8.042969 9.363281-15.015625 12.441406-7.578125 3.339844-11.015625 12.195312-7.671875 19.773438 2.476562 5.613281 7.96875 8.953124 13.730469 8.953124 2.023437 0 4.078124-.410156 6.046874-1.277343 12.925782-5.699219 22.644532-14.070313 28.890626-24.886719 16.144531-27.972656 6.113281-67.429688-28.25-111.101562zm-60.152344-148.148438c31.8125-2.003906 54.566406 4.644531 62.417968 18.25 9.324219 16.144531-.339843 45.136719-25.84375 77.550781-3.675781 4.671875-7.617187 9.351563-11.804687 14.023438-28.351563-26.765625-63.410156-52.554688-102.371094-75.050781-6.578125-3.796876-13.183593-7.441407-19.792969-10.949219 35.453126-13.726563 69.253907-22.050781 97.394532-23.824219zm-313.621094 81.429688c-17.644531-26.546876-23.257812-49.574219-15.402344-63.179688 9.320313-16.144531 39.261719-22.269531 80.082032-16.394531 5.882812.847656 11.90625 1.921875 18.050781 3.214843-9.003907 37.933594-13.8125 81.191407-13.8125 126.179688 0 7.59375.144531 15.136719.414062 22.613281-29.617187-23.839843-53.722656-48.949219-69.332031-72.433593zm101.335938 103.175781c-.015626-.25-.042969-.5-.070313-.746094-1.546875-17.039063-2.347656-34.660156-2.347656-52.609375 0-42.550781 4.472656-83.257812 12.851562-118.730469 19.976563 5.996094 40.796875 13.960938 61.859375 23.664063.195313.097656.398438.1875.601563.277344 15.550781 7.183593 31.226562 15.308593 46.789062 24.292968 36.851563 21.277344 69.863281 45.503906 96.394531 70.496094-15.179687 14.300781-32.488281 28.347656-51.421874 41.738281-.179688.121094-.351563.25-.53125.378907-13.996094 9.875-28.875 19.390624-44.441407 28.375-36.851562 21.277343-74.339843 37.753906-109.246093 48.234374-4.792969-20.285156-8.308594-42.289062-10.4375-65.371093zm125.996093 127.714843c-14.167969 28.554688-31.304687 44.929688-47.015625 44.929688-18.644531 0-38.917968-22.863281-54.238281-61.15625-2.207031-5.519531-4.289063-11.273438-6.242187-17.238281 37.355468-11.167969 77.222656-28.632813 116.183593-51.128907 6.578125-3.796874 13.039063-7.691406 19.378907-11.667968-5.839844 37.570312-15.53125 71.003906-28.066407 96.261718zm0 0" fill="#deecf1"/><path d="m449.210938 272.898438c-4.4375-5.636719-9.226563-11.273438-14.328126-16.898438 5.101563-5.625 9.894532-11.265625 14.328126-16.898438 34.363281-43.675781 44.394531-83.132812 28.25-111.101562-9.882813-17.113281-33.578126-36.769531-90.285157-33.191406-37.828125 2.386718-84.265625 15.21875-131.40625 36.242187-.003906-.003906-.007812-.003906-.011719-.007812v33.027343c13.546876 6.460938 27.164063 13.621094 40.699219 21.4375 36.851563 21.273438 69.863281 45.5 96.394531 70.492188-15.179687 14.300781-32.488281 28.351562-51.421874 41.738281-.179688.121094-.351563.25-.53125.378907-13.996094 9.875-28.875 19.390624-44.441407 28.378906-13.53125 7.8125-27.152343 14.972656-40.699219 21.433594v33.015624c18.527344-8.269531 37.214844-17.796874 55.699219-28.46875 6.578125-3.796874 13.039063-7.691406 19.378907-11.667968-5.839844 37.570312-15.527344 71.003906-28.0625 96.261718-14.171876 28.554688-31.308594 44.929688-47.015626 44.929688v30c19.761719 0 48.625-10.683594 73.886719-61.59375 16.847657-33.945312 28.953125-80.578125 34.316407-131.917969 18.207031-13.195312 34.964843-26.992187 49.867187-41.0625 4.1875 4.675781 8.128906 9.355469 11.804687 14.023438 25.503907 32.414062 35.167969 61.40625 25.847657 77.550781-2.992188 5.179688-8.042969 9.363281-15.015625 12.4375-7.578125 3.34375-11.015625 12.195312-7.671875 19.777344 2.476562 5.609375 7.96875 8.949218 13.730469 8.949218 2.023437 0 4.078124-.410156 6.046874-1.277343 12.925782-5.699219 22.644532-14.070313 28.890626-24.886719 16.144531-27.972656 6.113281-67.429688-28.25-111.101562zm-35.382813-38.324219c-28.351563-26.765625-63.410156-52.554688-102.371094-75.050781-6.578125-3.796876-13.179687-7.441407-19.792969-10.949219 35.453126-13.726563 69.253907-22.050781 97.394532-23.824219 31.8125-2.003906 54.566406 4.644531 62.417968 18.25 9.324219 16.144531-.339843 45.136719-25.84375 77.550781-3.675781 4.671875-7.617187 9.347657-11.804687 14.023438zm0 0" fill="#76e2f8"/><path d="m303.53125 228.414062c-9.824219-17.015624-28.144531-27.585937-47.8125-27.585937-9.640625 0-19.164062 2.558594-27.546875 7.394531-12.757813 7.367188-21.886719 19.265625-25.703125 33.5-3.8125 14.230469-1.855469 29.097656 5.511719 41.859375 9.828125 17.019531 28.148437 27.589844 47.8125 27.589844 9.640625 0 19.164062-2.558594 27.546875-7.394531 12.761718-7.367188 21.886718-19.265625 25.703125-33.5 3.8125-14.234375 1.855469-29.101563-5.511719-41.863282zm0 0" fill="#ff637b"/><path d="m309.035156 0c-30.421875 0-55.167968 24.746094-55.167968 55.164062 0 30.421876 24.746093 55.167969 55.167968 55.167969 30.417969 0 55.167969-24.746093 55.167969-55.167969 0-30.417968-24.75-55.164062-55.167969-55.164062zm0 0" fill="#7fe881"/><path d="m430.625 354.777344c-8.378906-4.835938-17.902344-7.394532-27.539062-7.394532-19.667969 0-37.992188 10.574219-47.820313 27.59375-15.207031 26.34375-6.144531 60.144532 20.195313 75.355469 8.382812 4.839844 17.90625 7.398438 27.546874 7.398438 19.664063 0 37.984376-10.570313 47.8125-27.589844 15.207032-26.34375 6.148438-60.152344-20.195312-75.363281zm0 0" fill="#ffb64c"/><path d="m102.964844 282.691406c-9.824219-17.015625-28.144532-27.585937-47.8125-27.585937-9.636719 0-19.164063 2.558593-27.542969 7.398437-12.761719 7.363282-21.890625 19.261719-25.707031 33.492188-3.8125 14.234375-1.855469 29.101562 5.511718 41.863281 9.824219 17.019531 28.148438 27.589844 47.816407 27.589844 9.636719 0 19.160156-2.554688 27.542969-7.394531 26.339843-15.210938 35.398437-49.019532 20.191406-75.363282zm0 0" fill="#6b77e8"/><path d="m303.53125 228.414062c-9.816406-17.003906-28.121094-27.570312-47.773438-27.585937v110.347656h.039063c9.636719 0 19.164063-2.5625 27.542969-7.398437 12.761718-7.367188 21.890625-19.265625 25.703125-33.5s1.855469-29.101563-5.511719-41.863282zm0 0" fill="#ff1786"/><path d="m364.203125 55.164062c0-30.417968-24.75-55.164062-55.167969-55.164062v110.332031c30.417969 0 55.167969-24.746093 55.167969-55.167969zm0 0" fill="#00a03c"/><path d="m430.625 354.777344c-8.378906-4.835938-17.902344-7.394532-27.539062-7.394532-.015626 0-.027344 0-.042969 0v110.347657c19.652343-.015625 37.957031-10.582031 47.773437-27.589844 15.210938-26.34375 6.152344-60.152344-20.191406-75.363281zm0 0" fill="#ff5b5b"/><path d="m55.171875 255.105469v110.34375h.058594c9.636719 0 19.160156-2.554688 27.546875-7.394531 26.335937-15.210938 35.394531-49.019532 20.1875-75.363282-9.820313-17.011718-28.132813-27.582031-47.792969-27.585937zm0 0" fill="#4b5be4"/></svg>